{"title":"Body of Proof S01E06 (WEB-DL+XviD NL Subs) Hornigold TBS","uid":6372285,"size":1800308407,"categoryP":"video","categoryS":"tv_shows","magnet":"?xt=urn:btih:e7dfbfe465dc6274f960342c6d941d1f56dd3f23&amp;dn=Body+of+Proof+S01E06+%28WEB-DL%2BXviD+NL+Subs%29+Hornigold+TBS&amp;tr=udp%3A%2F%2Ftracker.openbittorrent.com%3A80&amp;tr=udp%3A%2F%2Fopen.demonii.com%3A1337&amp;tr=udp%3A%2F%2Ftracker.coppersurfer.tk%3A6969&amp;tr=udp%3A%2F%2Fexodus.desync.com%3A6969","seeders":0,"leechers":0,"uploader":"Hornigold","files":-1,"time":1304720565,"description":"Body of Proof S01E06 ENG+NL Subs\n\nTwee versies: Een map met een .MKV en een map met een .AVI. Vink de map die je niet wil uit en downloaden maar :)\nTwo versions: One folder with .MKV and one folder with an .AVI. Uncheck the folder you don't want and start the download :)\n\nVerenigde Staten ~ 60 minuten per aflevering ~ gecreÃƒÂ«erd door Chris Murphey ~ met Windell Middlebrooks, Dana Delany en Jeri Ryan.\n\nCurtis betwijfelt Ethan's interesse in het onderzoek van de mysterieuze dood van een mooi tweeling; Megan loopt tegen verzet op terwijl ze de dood van een patient onderzoekt in het ziekenhuis waar ze werkte.\n\nBestandsformaat: .MKV en .AVI\nBestandsgrootte: 1,33 GB en 349 MB\nTaal: Engels in 5.1 en 2.0\nOndertitelingen: Engels en Nederlands, beiden custom ~ Nederlands door wivr (in te stellen)\nCategorie : Serie\nBeelformaat: 16:9\nBron : WEB-DL en HDTV\nMenu: Nee\nExtra's: Nee\nGenre : Misdaad ~ Drama\nWeblink : &lt;a href=&quot; http://www.imdb.com/title/tt1587669/&quot; rel=&quot;nofollow&quot; target=&quot;_NEW&quot;&gt; http://www.imdb.com/title/tt1587669/&lt;/a&gt;\n\n~~~~~~~~~~~~~~~~~~~~~~\nUSA  ~ 60 minutes per episode ~ created by Chris Murphy ~ with Windell Middlebrooks, Dana Delany and Jeri Ryan\n\nCurtis questions Ethan's interest in the investigation of the mysterious death of a beautiful twin; Megan runs into resistance while investigating the death of a patient at the hospital where she used to work.\n\nFile Format: .MKV and .AVI\nFile size: 1.37 and 349 MB\nLanguage: English 5.1 and 2.0\nSubtitles: English and Dutch, both custom  ~ Dutch by wivr (selectable)\nCategory : Series\nFormat : 16:9\nSource : WEB-DL  and HDTV\nMenu: No\nExtras: No\nGenre : Drama ~ Crime\nWeblink : &lt;a href=&quot; http://www.imdb.com/title/tt1587669/&quot; rel=&quot;nofollow&quot; target=&quot;_NEW&quot;&gt; http://www.imdb.com/title/tt1587669/&lt;/a&gt;\n\nVideo information:\n~~~~~~~~~~~~~~~~~~~~~~\nVideo of the .AVI file:\nID                               : 0\nFormat                           : MPEG-4 Visual\nFormat profile                   : Advanced Simple@L5\nFormat settings, BVOP            : 2\nFormat settings, QPel            : No\nFormat settings, GMC             : No warppoints\nFormat settings, Matrix          : Default (H.263)\nCodec ID                         : XVID\nCodec ID/Hint                    : XviD\nDuration                         : 42mn 12s\nBit rate                         : 1 015 Kbps\nWidth                            : 624 pixels\nHeight                           : 352 pixels\nDisplay aspect ratio             : 16:9\nFrame rate                       : 23.976 fps\nColor space                      : YUV\nChroma subsampling               : 4:2:0\nBit depth                        : 8 bits\nScan type                        : Progressive\nCompression mode                 : Lossy\nBits/(Pixel*Frame)               : 0.193\nStream size                      : 306 MiB (88%)\nWriting library                  : XviD 1.2.1 (UTC 2008-12-04)\n\nVideo of the .MKV file:\nID                               : 1\nFormat                           : AVC\nFormat/Info                      : Advanced Video Codec\nFormat profile                   : &lt;a class=&quot;__cf_email__&quot; href=&quot;/cdn-cgi/l/email-protection&quot; data-cfemail=&quot;155d7c727d5559263b24&quot;&gt;[email&amp;#160;protected]&lt;/a&gt;&lt;script cf-hash='f9e31' type=&quot;text/javascript&quot;&gt;\n/* &lt;![CDATA[ */!function(){try{var t=&quot;currentScript&quot;in document?document.currentScript:function(){for(var t=document.getElementsByTagName(&quot;script&quot;),e=t.length;e--;)if(t[e].getAttribute(&quot;cf-hash&quot;))return t[e]}();if(t&amp;&amp;t.previousSibling){var e,r,n,i,c=t.previousSibling,a=c.getAttribute(&quot;data-cfemail&quot;);if(a){for(e=&quot;&quot;,r=parseInt(a.substr(0,2),16),n=2;a.length-n;n+=2)i=parseInt(a.substr(n,2),16)^r,e+=String.fromCharCode(i);e=document.createTextNode(e),c.parentNode.replaceChild(e,c)}}}catch(u){}}();/* ]]&gt; */&lt;/script&gt;\nFormat settings, CABAC           : No\nFormat settings, ReFrames        : 2 frames\nCodec ID                         : V_MPEG4/ISO/AVC\nDuration                         : 43mn 30s\nBit rate                         : 3 922 Kbps\nWidth                            : 1 280 pixels\nHeight                           : 720 pixels\nDisplay aspect ratio             : 16:9\nFrame rate                       : 23.976 fps\nColor space                      : YUV\nChroma subsampling               : 4:2:0\nBit depth                        : 8 bits\nScan type                        : Progressive\nBits/(Pixel*Frame)               : 0.177\nStream size                      : 1.19 GiB (89%)\nTitle                            : Body of Proof - Season 1, Episode 6: Society Hill\nLanguage                         : English\nColor primaries                  : BT.709-5, BT.1361, IEC 61966-2-4, SMPTE RP177\nTransfer characteristics         : BT.709-5, BT.1361\nMatrix coefficients              : BT.709-5, BT.1361, IEC 61966-2-4 709, SMPTE RP177\n\n~~~~~~~~~~~~~~~\nHornigold TBS\n~~~~~~~~~~~~~~~","torrent":{"xt":"urn:btih:e7dfbfe465dc6274f960342c6d941d1f56dd3f23","amp;dn":"Body+of+Proof+S01E06+%28WEB-DL%2BXviD+NL+Subs%29+Hornigold+TBS","amp;tr":["udp%3A%2F%2Ftracker.openbittorrent.com%3A80","udp%3A%2F%2Fopen.demonii.com%3A1337","udp%3A%2F%2Ftracker.coppersurfer.tk%3A6969","udp%3A%2F%2Fexodus.desync.com%3A6969"],"infoHash":"e7dfbfe465dc6274f960342c6d941d1f56dd3f23","infoHashBuffer":{"type":"Buffer","data":[231,223,191,228,101,220,98,116,249,96,52,44,109,148,29,31,86,221,63,35]},"announce":[],"urlList":[]}}